<svg xmlns="http://www.w3.org/2000/svg" xmlns:xlink="http://www.w3.org/1999/xlink" width="500" zoomAndPan="magnify" viewBox="0 0 375 374.999991" height="500" preserveAspectRatio="xMidYMid meet" version="1.0"><defs><g/><clipPath id="287b70682a"><path d="M 60 146 L 94 146 L 94 174 L 60 174 Z M 60 146 " clip-rule="nonzero"/></clipPath><clipPath id="59ac4600b2"><path d="M 61.734375 145.9375 L 93.640625 147.675781 L 92.210938 173.859375 L 60.308594 172.121094 Z M 61.734375 145.9375 " clip-rule="nonzero"/></clipPath><clipPath id="69f10ee8e2"><path d="M 34.417969 144.175781 L 98.523438 147.667969 L 96 194.015625 L 31.890625 190.523438 Z M 34.417969 144.175781 " clip-rule="nonzero"/></clipPath><clipPath id="2ee9d95341"><path d="M 37 189 L 78 189 L 78 219 L 37 219 Z M 37 189 " clip-rule="nonzero"/></clipPath><clipPath id="73efaea7b7"><path d="M 77.300781 203.347656 L 59.871094 230.128906 L 37.894531 215.824219 L 55.320312 189.046875 Z M 77.300781 203.347656 " clip-rule="nonzero"/></clipPath><clipPath id="509a4da6c2"><path d="M 92.460938 180.554688 L 57.441406 234.367188 L 18.535156 209.046875 L 53.554688 155.234375 Z M 92.460938 180.554688 " clip-rule="nonzero"/></clipPath><clipPath id="e03cfe71d7"><path d="M 14 147 L 43 147 L 43 187 L 14 187 Z M 14 147 " clip-rule="nonzero"/></clipPath><clipPath id="c6ae9875ef"><path d="M 17.859375 186.816406 L 6.382812 157 L 30.855469 147.582031 L 42.332031 177.398438 Z M 17.859375 186.816406 " clip-rule="nonzero"/></clipPath><clipPath id="7b92f74486"><path d="M 27.433594 212.464844 L 4.375 152.546875 L 47.695312 135.875 L 70.753906 195.792969 Z M 27.433594 212.464844 " clip-rule="nonzero"/></clipPath></defs><rect x="-37.5" width="450" fill="#ffffff" y="-37.499999" height="449.999989" fill-opacity="1"/><rect x="-37.5" width="450" fill="#ffffff" y="-37.499999" height="449.999989" fill-opacity="1"/><g fill="#00d366" fill-opacity="1"><g transform="translate(107.096049, 200.249987)"><g><path d="M 28.703125 -30.234375 L 11.078125 -30.234375 L 11.078125 -21.59375 L 26.328125 -21.59375 L 26.328125 -15.453125 L 11.078125 -15.453125 L 11.078125 0 L 3.765625 0 L 3.765625 -36.375 L 28.703125 -36.375 Z M 28.703125 -30.234375 "/></g></g></g><g fill="#00d366" fill-opacity="1"><g transform="translate(138.142472, 200.249987)"><g><path d="M 10.96875 -15.25 C 10.96875 -13.207031 11.054688 -11.75 11.234375 -10.875 C 11.503906 -9.351562 12.207031 -8.109375 13.34375 -7.140625 C 14.476562 -6.171875 16.144531 -5.6875 18.34375 -5.6875 C 20.375 -5.6875 21.894531 -6.054688 22.90625 -6.796875 C 23.925781 -7.546875 24.585938 -8.570312 24.890625 -9.875 C 25.203125 -11.1875 25.359375 -12.957031 25.359375 -15.1875 L 25.359375 -36.375 L 32.671875 -36.375 L 32.671875 -16.46875 C 32.671875 -13.414062 32.535156 -10.941406 32.265625 -9.046875 C 31.285156 -2.609375 26.710938 0.609375 18.546875 0.609375 C 14.171875 0.609375 10.898438 -0.125 8.734375 -1.59375 C 6.566406 -3.070312 5.175781 -4.945312 4.5625 -7.21875 C 3.957031 -9.488281 3.65625 -12.347656 3.65625 -15.796875 L 3.65625 -36.375 L 10.96875 -36.375 Z M 10.96875 -15.25 "/></g></g></g><g fill="#00d366" fill-opacity="1"><g transform="translate(174.829081, 200.249987)"><g><path d="M 11.234375 -6.140625 L 29.515625 -6.140625 L 29.515625 0 L 3.90625 0 L 3.90625 -36.375 L 11.234375 -36.375 Z M 11.234375 -6.140625 "/></g></g></g><g fill="#00d366" fill-opacity="1"><g transform="translate(205.875504, 200.249987)"><g><path d="M 11.234375 -6.140625 L 29.515625 -6.140625 L 29.515625 0 L 3.90625 0 L 3.90625 -36.375 L 11.234375 -36.375 Z M 11.234375 -6.140625 "/></g></g></g><g fill="#00d366" fill-opacity="1"><g transform="translate(236.921927, 200.249987)"><g/></g></g><g fill="#00d366" fill-opacity="1"><g transform="translate(251.047792, 200.249987)"><g><path d="M 28.703125 -30.234375 L 11.078125 -30.234375 L 11.078125 -21.59375 L 26.328125 -21.59375 L 26.328125 -15.453125 L 11.078125 -15.453125 L 11.078125 0 L 3.765625 0 L 3.765625 -36.375 L 28.703125 -36.375 Z M 28.703125 -30.234375 "/></g></g></g><g fill="#00d366" fill-opacity="1"><g transform="translate(282.094214, 200.249987)"><g><path d="M 10.765625 0 L 3.453125 0 L 3.453125 -36.375 L 10.765625 -36.375 Z M 10.765625 0 "/></g></g></g><g fill="#00d366" fill-opacity="1"><g transform="translate(296.220079, 200.249987)"><g><path d="M 11.234375 -6.140625 L 29.515625 -6.140625 L 29.515625 0 L 3.90625 0 L 3.90625 -36.375 L 11.234375 -36.375 Z M 11.234375 -6.140625 "/></g></g></g><g fill="#00d366" fill-opacity="1"><g transform="translate(327.266491, 200.249987)"><g><path d="M 11.234375 -6.140625 L 29.515625 -6.140625 L 29.515625 0 L 3.90625 0 L 3.90625 -36.375 L 11.234375 -36.375 Z M 11.234375 -6.140625 "/></g></g></g><g clip-path="url(#287b70682a)"><g clip-path="url(#59ac4600b2)"><g clip-path="url(#69f10ee8e2)"><path fill="#00d366" d="M 95.160156 176.878906 L 74.066406 175.730469 C 73.277344 175.6875 72.546875 176.144531 72.234375 176.871094 C 69.203125 183.96875 61.984375 188.457031 54.269531 188.039062 C 44.117188 187.484375 36.308594 178.777344 36.863281 168.621094 C 37.414062 158.472656 46.125 150.660156 56.277344 151.214844 C 58.292969 151.324219 60.257812 151.761719 62.097656 152.492188 C 60.898438 155.609375 61.601562 159.238281 64.039062 161.675781 C 64.121094 161.777344 64.210938 161.871094 64.316406 161.957031 L 74.476562 170.308594 C 75.28125 170.96875 76.464844 170.851562 77.125 170.046875 C 77.785156 169.246094 77.667969 168.058594 76.867188 167.398438 L 67.054688 159.335938 C 65.519531 158.074219 64.960938 156.0625 65.46875 154.261719 C 65.644531 154.375 65.8125 154.496094 65.984375 154.617188 L 67.902344 156.191406 C 68.058594 156.339844 68.214844 156.488281 68.367188 156.640625 C 68.53125 156.808594 68.71875 156.9375 68.921875 157.027344 L 78.75 165.105469 C 79.554688 165.765625 80.738281 165.648438 81.398438 164.847656 C 82.058594 164.042969 81.941406 162.859375 81.140625 162.199219 L 70.398438 153.371094 C 69.71875 152.742188 69.007812 152.15625 68.265625 151.621094 L 67.875 151.296875 C 69.550781 150.417969 71.660156 150.570312 73.210938 151.84375 L 83.023438 159.90625 C 83.828125 160.566406 85.011719 160.449219 85.671875 159.644531 C 86.332031 158.84375 86.214844 157.65625 85.414062 157 L 75.25 148.648438 C 75.148438 148.5625 75.035156 148.492188 74.921875 148.429688 C 71.59375 146.199219 67.140625 146.582031 64.238281 149.3125 C 61.808594 148.238281 59.1875 147.605469 56.480469 147.457031 C 53.488281 147.292969 50.554688 147.722656 47.757812 148.730469 C 45.054688 149.703125 42.597656 151.171875 40.453125 153.097656 C 38.304688 155.019531 36.578125 157.304688 35.316406 159.882812 C 34.011719 162.554688 33.265625 165.425781 33.105469 168.417969 C 32.941406 171.410156 33.371094 174.34375 34.378906 177.144531 C 35.351562 179.84375 36.820312 182.300781 38.742188 184.449219 C 40.667969 186.59375 42.953125 188.320312 45.53125 189.582031 C 48.203125 190.886719 51.074219 191.632812 54.066406 191.796875 C 58.703125 192.046875 63.226562 190.871094 67.136719 188.394531 C 69.023438 187.199219 70.710938 185.738281 72.160156 184.042969 C 73.335938 182.667969 74.332031 181.164062 75.136719 179.558594 L 94.953125 180.636719 C 95.992188 180.695312 96.878906 179.898438 96.9375 178.863281 C 96.992188 177.824219 96.195312 176.9375 95.160156 176.878906 " fill-opacity="1" fill-rule="nonzero"/></g></g></g><g clip-path="url(#2ee9d95341)"><g clip-path="url(#73efaea7b7)"><g clip-path="url(#509a4da6c2)"><path fill="#00d366" d="M 33.804688 216.871094 L 45.328125 199.167969 C 45.757812 198.503906 45.730469 197.644531 45.253906 197.011719 C 40.613281 190.839844 40.328125 182.34375 44.542969 175.871094 C 50.085938 167.347656 61.53125 164.925781 70.054688 170.472656 C 78.574219 176.019531 80.996094 187.464844 75.449219 195.984375 C 74.347656 197.679688 72.992188 199.160156 71.4375 200.390625 C 69.335938 197.796875 65.839844 196.59375 62.511719 197.492188 C 62.382812 197.511719 62.253906 197.542969 62.128906 197.589844 L 49.824219 202.230469 C 48.851562 202.59375 48.359375 203.679688 48.726562 204.652344 C 49.09375 205.625 50.179688 206.117188 51.152344 205.75 L 63.035156 201.269531 C 64.894531 200.570312 66.917969 201.089844 68.222656 202.429688 C 68.035156 202.523438 67.847656 202.613281 67.660156 202.699219 L 65.335938 203.574219 C 65.128906 203.636719 64.921875 203.699219 64.714844 203.753906 C 64.488281 203.8125 64.28125 203.910156 64.101562 204.039062 L 52.199219 208.527344 C 51.226562 208.894531 50.734375 209.980469 51.101562 210.953125 C 51.46875 211.925781 52.550781 212.414062 53.523438 212.050781 L 66.535156 207.144531 C 67.417969 206.871094 68.28125 206.546875 69.117188 206.171875 L 69.589844 205.992188 C 69.515625 207.882812 68.332031 209.640625 66.453125 210.347656 L 54.570312 214.828125 C 53.597656 215.191406 53.109375 216.277344 53.472656 217.25 C 53.839844 218.222656 54.925781 218.714844 55.898438 218.347656 L 68.203125 213.707031 C 68.332031 213.660156 68.449219 213.601562 68.558594 213.53125 C 72.152344 211.761719 74.042969 207.710938 73.128906 203.832031 C 75.269531 202.265625 77.128906 200.308594 78.605469 198.039062 C 80.238281 195.527344 81.332031 192.769531 81.855469 189.84375 C 82.359375 187.015625 82.3125 184.152344 81.71875 181.332031 C 81.121094 178.511719 80.003906 175.875 78.398438 173.496094 C 76.734375 171.03125 74.617188 168.953125 72.105469 167.320312 C 69.59375 165.683594 66.835938 164.589844 63.910156 164.066406 C 61.085938 163.5625 58.222656 163.609375 55.402344 164.207031 C 52.582031 164.804688 49.945312 165.917969 47.566406 167.527344 C 45.101562 169.1875 43.023438 171.304688 41.386719 173.816406 C 38.851562 177.710938 37.617188 182.214844 37.8125 186.84375 C 37.90625 189.070312 38.332031 191.265625 39.078125 193.367188 C 39.679688 195.070312 40.488281 196.683594 41.476562 198.183594 L 30.652344 214.820312 C 30.085938 215.691406 30.332031 216.855469 31.203125 217.421875 C 32.074219 217.988281 33.238281 217.742188 33.804688 216.871094 " fill-opacity="1" fill-rule="nonzero"/></g></g></g><g clip-path="url(#e03cfe71d7)"><g clip-path="url(#c6ae9875ef)"><g clip-path="url(#7b92f74486)"><path fill="#00d366" d="M 32.40625 143.65625 L 39.992188 163.367188 C 40.273438 164.105469 40.992188 164.589844 41.78125 164.574219 C 49.5 164.433594 56.550781 169.183594 59.324219 176.390625 C 62.976562 185.882812 58.226562 196.570312 48.738281 200.222656 C 39.25 203.875 28.558594 199.125 24.90625 189.636719 C 24.183594 187.753906 23.777344 185.785156 23.691406 183.804688 C 27.027344 183.621094 30.046875 181.496094 31.273438 178.273438 C 31.332031 178.15625 31.382812 178.035156 31.417969 177.90625 L 34.875 165.214844 C 35.148438 164.214844 34.554688 163.179688 33.554688 162.90625 C 32.550781 162.632812 31.515625 163.222656 31.242188 164.226562 L 27.90625 176.480469 C 27.382812 178.398438 25.773438 179.730469 23.921875 180.003906 C 23.957031 179.796875 23.996094 179.59375 24.035156 179.390625 L 24.6875 176.992188 C 24.757812 176.789062 24.832031 176.585938 24.910156 176.386719 C 24.992188 176.167969 25.035156 175.945312 25.035156 175.722656 L 28.378906 163.445312 C 28.652344 162.445312 28.0625 161.410156 27.058594 161.136719 C 26.058594 160.863281 25.023438 161.453125 24.75 162.457031 L 21.09375 175.871094 C 20.796875 176.75 20.554688 177.636719 20.367188 178.535156 L 20.234375 179.023438 C 18.75 177.855469 18.019531 175.867188 18.546875 173.929688 L 21.886719 161.675781 C 22.160156 160.675781 21.566406 159.640625 20.566406 159.367188 C 19.5625 159.09375 18.527344 159.683594 18.253906 160.6875 L 14.796875 173.375 C 14.761719 173.507812 14.742188 173.636719 14.734375 173.765625 C 14.0625 177.714844 16.234375 181.621094 19.910156 183.152344 C 19.929688 185.808594 20.421875 188.460938 21.394531 190.988281 C 22.472656 193.785156 24.0625 196.289062 26.128906 198.429688 C 28.121094 200.496094 30.46875 202.136719 33.101562 203.304688 C 35.738281 204.476562 38.527344 205.117188 41.398438 205.210938 C 44.371094 205.308594 47.292969 204.8125 50.089844 203.734375 C 52.886719 202.660156 55.390625 201.066406 57.53125 199.003906 C 59.59375 197.007812 61.238281 194.664062 62.40625 192.027344 C 63.578125 189.394531 64.21875 186.601562 64.3125 183.734375 C 64.410156 180.761719 63.914062 177.835938 62.835938 175.039062 C 61.167969 170.703125 58.242188 167.0625 54.378906 164.507812 C 52.523438 163.277344 50.496094 162.335938 48.355469 161.707031 C 46.621094 161.199219 44.839844 160.902344 43.046875 160.828125 L 35.917969 142.304688 C 35.542969 141.335938 34.453125 140.851562 33.484375 141.222656 C 32.515625 141.597656 32.03125 142.6875 32.40625 143.65625 " fill-opacity="1" fill-rule="nonzero"/></g></g></g><path stroke-linecap="round" transform="matrix(0.298311, -0.0431539, 0.0431539, 0.298311, 30.910194, 149.750234)" fill="none" stroke-linejoin="miter" d="M 8.832975 17.147576 C 39.787946 2.939636 70.754443 2.95403 101.71964 17.188902 " stroke="#00d366" stroke-width="13" stroke-opacity="1" stroke-miterlimit="4"/><path stroke-linecap="round" transform="matrix(-0.15534, -0.258305, 0.258305, -0.15534, 32.793002, 213.20754)" fill="none" stroke-linejoin="miter" d="M 8.909979 17.047983 C 38.562134 2.971532 68.226641 2.981684 97.890141 17.100649 " stroke="#00d366" stroke-width="13" stroke-opacity="1" stroke-miterlimit="4"/><path stroke-linecap="round" transform="matrix(-0.137915, 0.268014, -0.268014, -0.137915, 90.812519, 177.598714)" fill="none" stroke-linejoin="miter" d="M 8.900417 17.049093 C 38.569629 2.962352 68.228669 2.989274 97.888724 17.09495 " stroke="#00d366" stroke-width="13" stroke-opacity="1" stroke-miterlimit="4"/></svg>